<svg xmlns="http://www.w3.org/2000/svg" viewBox="0 0 75.54 50"><defs><style>.cls-1{fill:#006ed4;}</style></defs><title>mensajeRecurso 3</title><g id="Capa_2" data-name="Capa 2"><g id="Capa_1-2" data-name="Capa 1"><path class="cls-1" d="M51.89,25.11,71.25,8.28V41.73ZM26.94,28l6.8,5.91a6.12,6.12,0,0,0,4,1.45h.1a6.17,6.17,0,0,0,4-1.46h0l6.8-5.9L69.26,45.7h-63ZM6.25,4.3H69.3L39,30.6a1.91,1.91,0,0,1-1.19.41h-.09a1.91,1.91,0,0,1-1.2-.42h0Zm-1.95,4L23.65,25.1,4.3,41.72ZM72.29.6A5.81,5.81,0,0,0,69.7,0H5.85A5.88,5.88,0,0,0,3.22.62l0,0A5.85,5.85,0,0,0,0,5.84V44.15A5.84,5.84,0,0,0,5.85,50H69.69a5.84,5.84,0,0,0,5.85-5.85V5.84A5.85,5.85,0,0,0,72.3.61h0Z"/></g></g></svg>