<svg xmlns="http://www.w3.org/2000/svg" viewBox="0 0 52.58 61.68"><defs><style>.cls-1{fill:#006ed4;stroke:#006ed4;}</style></defs><title>pinRecurso 1</title><g id="Capa_2" data-name="Capa 2"><g id="Capa_1-2" data-name="Capa 1"><path class="cls-1" d="M11.55,28.65h0A17.71,17.71,0,0,1,8.31,18.43,18,18,0,1,1,43,25.12h0a11,11,0,0,1-.71,1.64h0l-12.93,22,0,0h0a4.08,4.08,0,0,1-2.77,2,2.73,2.73,0,0,1-1.77-.49h0a5.94,5.94,0,0,1-1.43-1.41l-.06.06.06-.06,0-.06Zm36,16.85L36.51,47.31l2.24-4.21A31.54,31.54,0,0,1,47.57,45.5ZM.5,51.09a5.32,5.32,0,0,1,2.32-4.25,17.7,17.7,0,0,1,6.27-2.78l10,6.1-18.15,3A4.91,4.91,0,0,1,.5,51.09Zm32.37,9.79-6.64-7.54,25.45-4.15a4.65,4.65,0,0,1,.4,1.9c0,2.62-2,4.82-5.45,6.49A40.6,40.6,0,0,1,32.87,60.88Zm-5.1.28h-.18l-1.3,0c-9.09,0-17.06-1.55-21.66-4.3L21.7,54.09ZM34,18.42a7.75,7.75,0,1,0-7.75,7.73A7.65,7.65,0,0,0,34,18.42Z"/></g></g></svg>