<svg xmlns="http://www.w3.org/2000/svg" viewBox="0 0 52 52"><defs><style>.cls-1{fill:none;stroke:#006ed4;stroke-width:2px;}</style></defs><title>telephoneRecurso 2</title><g id="Capa_2" data-name="Capa 2"><g id="Capa_1-2" data-name="Capa 1"><path class="cls-1" d="M49.12,35.93l-12.3-5.5a3.09,3.09,0,0,0-3,.26l-.1.07L27.3,36.27a1.07,1.07,0,0,1-.47.14,1,1,0,0,1-.49-.09A25.09,25.09,0,0,1,15.69,25.75a1,1,0,0,1-.1-.48,1,1,0,0,1,.15-.48l5.52-6.56.07-.1a3.09,3.09,0,0,0,.26-3L16.08,2.9a3.1,3.1,0,0,0-1.31-1.48A3.14,3.14,0,0,0,12.83,1,13.61,13.61,0,0,0,1,14.54,36.49,36.49,0,0,0,37.46,51,13.61,13.61,0,0,0,51,39.17a3.11,3.11,0,0,0-1.86-3.24Zm-.2,3a11.55,11.55,0,0,1-11.46,10A34.43,34.43,0,0,1,3.08,14.54a11.55,11.55,0,0,1,10-11.46h.12a1.07,1.07,0,0,1,.58.18,1.09,1.09,0,0,1,.38.47L19.67,16a1.09,1.09,0,0,1,.08.47,1,1,0,0,1-.14.46l-5.52,6.57-.08.1a3.22,3.22,0,0,0-.5,1.5,3.12,3.12,0,0,0,.3,1.56A27,27,0,0,0,25.42,38.2,3.14,3.14,0,0,0,28.5,38l.09-.07,6.47-5.5a.93.93,0,0,1,.45-.15,1.1,1.1,0,0,1,.48.08l12.29,5.51a1,1,0,0,1,.5.43A1.1,1.1,0,0,1,48.92,38.91Z"/></g></g></svg>