<svg xmlns="http://www.w3.org/2000/svg" viewBox="0 0 41.5 41.5"><defs><style>.cls-1{fill:none;stroke:#555;stroke-linecap:round;stroke-width:1.5px;}</style></defs><title>mensaje2Recurso 5</title><g id="Capa_2" data-name="Capa 2"><g id="Capa_1-2" data-name="Capa 1"><path class="cls-1" d="M20.75,28.75v-16m-8,12v-8m16,8v-8m2-13.32A20,20,0,0,0,2.84,29.66,3.25,3.25,0,0,1,3.1,32L1.91,36.4a2.68,2.68,0,0,0,0,1.35,2.59,2.59,0,0,0,1.83,1.83,2.68,2.68,0,0,0,1.35,0L9.55,38.4a3.28,3.28,0,0,1,2.3.26A20,20,0,0,0,38.07,10.75"/></g></g></svg>