<svg xmlns="http://www.w3.org/2000/svg" xmlns:xlink="http://www.w3.org/1999/xlink" viewBox="0 0 48.13 42.07"><defs><style>.cls-1{fill:url(#Degradado_sin_nombre_16);}.cls-2{fill:url(#Degradado_sin_nombre_16-2);}.cls-3{fill:url(#Degradado_sin_nombre_16-3);}</style><linearGradient id="Degradado_sin_nombre_16" x1="23.85" y1="-8.19" x2="24.35" y2="43.31" gradientUnits="userSpaceOnUse"><stop offset="0" stop-color="#00c8c2"/><stop offset="1" stop-color="#006ed4"/></linearGradient><linearGradient id="Degradado_sin_nombre_16-2" x1="24.38" y1="-8.2" x2="24.88" y2="43.3" xlink:href="#Degradado_sin_nombre_16"/><linearGradient id="Degradado_sin_nombre_16-3" x1="33.01" y1="-8.28" x2="33.51" y2="43.22" xlink:href="#Degradado_sin_nombre_16"/></defs><title>SmartDent logoRecurso 3</title><g id="Capa_2" data-name="Capa 2"><g id="OBJECTS"><path class="cls-1" d="M45.62,4.67A9.2,9.2,0,0,0,34.7.49L24,5,13.28.45A9.17,9.17,0,0,0,2.45,4.67a19.42,19.42,0,0,0-.88,17.09L3.4,26a1.17,1.17,0,0,0,1.06.69,1.25,1.25,0,0,0,.46-.09,1.15,1.15,0,0,0,.6-1.51L3.68,20.84a17,17,0,0,1,.78-15,6.82,6.82,0,0,1,8-3.19l8.87,3.75a15,15,0,0,0-4,3.5,1.16,1.16,0,0,0,1.83,1.41,13.64,13.64,0,0,1,5.25-3.95h0l11-4.67a6.87,6.87,0,0,1,8.14,3.23,16.88,16.88,0,0,1,.83,14.93l-1.63,3.86a1.15,1.15,0,0,0,.61,1.51A1.16,1.16,0,0,0,45,25.55L46.6,21.7A19.28,19.28,0,0,0,45.62,4.67Z"/><path class="cls-2" d="M42.06,29.73a1.15,1.15,0,0,0-1.58.38L35.19,38.8a1.72,1.72,0,0,1-1.54,1,1.7,1.7,0,0,1-1.57-.92l-8.8-16.68a1.15,1.15,0,1,0-2,1.07l2.14,4.07a1.35,1.35,0,0,0-.31.32L15.91,38.84a1.72,1.72,0,0,1-1.55.93h0a1.72,1.72,0,0,1-1.54-1l-3.7-7.39a1.15,1.15,0,0,0-2,1l3.69,7.39a4,4,0,0,0,3.57,2.24h.06A4,4,0,0,0,17.89,40l6.69-10.45,5.47,10.37a4,4,0,0,0,3.57,2.14h.06a4,4,0,0,0,3.53-2.16l5.23-8.6A1.15,1.15,0,0,0,42.06,29.73Z"/><path class="cls-3" d="M33.24,11.21a1.16,1.16,0,0,0-1.15,1.15v2.77H29.32a1.15,1.15,0,0,0,0,2.3h2.77V20.2a1.15,1.15,0,0,0,2.3,0V17.43h2.78a1.15,1.15,0,0,0,0-2.3H34.39V12.36A1.15,1.15,0,0,0,33.24,11.21Z"/></g></g></svg>