<svg xmlns="http://www.w3.org/2000/svg" xmlns:xlink="http://www.w3.org/1999/xlink" viewBox="0 0 44 44"><defs><style>.cls-1{fill:#fff;}.cls-2{mask:url(#mask);}.cls-3{fill:#555;}</style><mask id="mask" x="0" y="0" width="44" height="44" maskUnits="userSpaceOnUse"><g id="path-1-inside-1_30_112" data-name="path-1-inside-1 30 112"><path class="cls-1" d="M26.53,4.54a1.15,1.15,0,0,1,.21-.43,1.38,1.38,0,0,1,.36-.32,1.2,1.2,0,0,1,.45-.15,1.29,1.29,0,0,1,.48,0A17.2,17.2,0,0,1,40.33,16a1.19,1.19,0,0,1-.13.93,1.19,1.19,0,0,1-.31.36,1.32,1.32,0,0,1-.43.21,1.12,1.12,0,0,1-.32,0A1.22,1.22,0,0,1,38,16.6,14.8,14.8,0,0,0,27.4,6,1.15,1.15,0,0,1,27,5.83a1.22,1.22,0,0,1-.32-.36A1.2,1.2,0,0,1,26.5,5,1.29,1.29,0,0,1,26.53,4.54Zm-.76,8a7.51,7.51,0,0,1,5.66,5.66,1.22,1.22,0,0,0,1.18.91,1.12,1.12,0,0,0,.32,0,1.23,1.23,0,0,0,.43-.21,1.19,1.19,0,0,0,.31-.36,1.21,1.21,0,0,0,.16-.45,1.3,1.3,0,0,0,0-.48,10,10,0,0,0-7.4-7.4,1.3,1.3,0,0,0-.48,0,1.23,1.23,0,0,0-.15,2.4ZM42,32.37A11.06,11.06,0,0,1,31,42,29,29,0,0,1,2,13,11.08,11.08,0,0,1,11.63,2a2.89,2.89,0,0,1,1.77.36,2.92,2.92,0,0,1,1.2,1.35l4.3,9.62a2.84,2.84,0,0,1,.23,1.38,2.89,2.89,0,0,1-.45,1.33l-.09.11-4.3,5.12a.33.33,0,0,0,0,.17.35.35,0,0,0,0,.17,19.19,19.19,0,0,0,8.16,8.09.38.38,0,0,0,.18,0,.35.35,0,0,0,.17,0l5-4.29.11-.08a2.84,2.84,0,0,1,2.71-.25l9.64,4.32a2.87,2.87,0,0,1,1.33,1.2A2.92,2.92,0,0,1,42,32.37Zm-2.43-.31a.35.35,0,0,0-.06-.24.38.38,0,0,0-.19-.16l-9.64-4.32a.45.45,0,0,0-.16,0,.28.28,0,0,0-.16.05l-5,4.28-.12.09a2.92,2.92,0,0,1-1.37.47,2.85,2.85,0,0,1-1.44-.27,21.59,21.59,0,0,1-9.29-9.22,2.87,2.87,0,0,1,.19-2.8.47.47,0,0,1,.09-.12l4.29-5.11a.38.38,0,0,0,0-.17.33.33,0,0,0,0-.17L12.36,4.71a.45.45,0,0,0-.15-.19A.48.48,0,0,0,12,4.45h-.05A8.62,8.62,0,0,0,4.45,13,26.56,26.56,0,0,0,31,39.55a8.62,8.62,0,0,0,8.57-7.49Z"/></g></mask></defs><title>telphone2Recurso 3</title><g id="Capa_2" data-name="Capa 2"><g id="Capa_1-2" data-name="Capa 1"><g class="cls-2"><path class="cls-3" d="M26.53,4.54l1.93.52h0ZM28,3.67,27.51,5.6h0ZM40.33,16l-1.94.5v0Zm-.87,1.5L40,19.4h0Zm-.32,0v-2h0ZM38,16.6,36,17.11h0ZM27.4,6,26.88,8h0Zm-1.63,6.53-.52,1.93h0Zm5.66,5.66-1.93.52h0Zm1.18.91v-2h0Zm.32,0L33.44,21h0Zm.87-1.5-1.94.52h0Zm-7.4-7.4-.52,1.93h0Zm-.93.13-1-1.74ZM42,32.37h2l-4-.26ZM31,42V40h0ZM2,13H2ZM11.63,2l-.24-2h0Zm3,1.71-1.84.79v0h0Zm4.3,9.62,1.84-.81h0Zm-.22,2.71L17,15h0Zm-.09.11,1.53,1.29h0Zm-4.3,5.12L12.76,20l-.16.19-.1.21Zm0,.17h0Zm0,.17,1.8-.88h0Zm8.16,8.09-.86,1.8h0Zm.35,0,.95,1.75.18-.1.16-.13Zm5-4.29,1.29,1.52h0Zm.11-.08L29,27h0Zm2.71-.25.82-1.83h0Zm9.64,4.32-.82,1.82h0Zm1.68,3H40l4,.25Zm-2.43-.31,2,.27v-.11Zm-.25-.4-.81,1.82h0Zm-9.64-4.32.82-1.83-.05,0-.05,0Zm-.32,0-.95-1.77-.19.1-.16.14Zm-5,4.28,1.28,1.54h0Zm-.12.09,1.11,1.66h0Zm-2.81.2-.87,1.8h0Zm-9.29-9.22-1.8.86v0Zm.19-2.8L13.94,21h0Zm.09-.12,1.5,1.32v0h0Zm4.29-5.11L18.18,16l.18-.2.11-.25Zm0-.34-1.82.81h0ZM12.36,4.71l-1.88.69,0,.07,0,.06ZM12,4.45l0-2h0Zm-.05,0v-2h-.26ZM4.45,13h0ZM31,39.55v-2h0ZM28.46,5.05a.72.72,0,0,1-.13.28L25.15,2.89A3.39,3.39,0,0,0,24.6,4Zm-.13.28a.74.74,0,0,1-.23.2l-2-3.47a3.45,3.45,0,0,0-1,.83Zm-.23.2a.71.71,0,0,1-.28.09l-.53-4a3.17,3.17,0,0,0-1.19.4Zm-.28.09a.65.65,0,0,1-.31,0l1-3.86a3.15,3.15,0,0,0-1.26-.08Zm-.29,0a15.24,15.24,0,0,1,6.9,4l2.83-2.82a19.09,19.09,0,0,0-8.72-5Zm6.9,4a15.21,15.21,0,0,1,4,6.91l3.87-1a19.09,19.09,0,0,0-5-8.72Zm4,6.93a.65.65,0,0,1,0-.31l4,.53a3.15,3.15,0,0,0-.08-1.26Zm0-.31a.66.66,0,0,1,.09-.28l3.47,2a3.17,3.17,0,0,0,.4-1.19Zm.09-.28a.74.74,0,0,1,.2-.23l2.43,3.17a3.16,3.16,0,0,0,.84-.94Zm.2-.23a.75.75,0,0,1,.27-.13l1,3.86a3.15,3.15,0,0,0,1.13-.56Zm.28-.13a.64.64,0,0,1,.2,0v4A3.32,3.32,0,0,0,40,19.4Zm.19,0a.78.78,0,0,1,.47.16l-2.43,3.17a3.16,3.16,0,0,0,2,.67Zm.47.16a.73.73,0,0,1,.28.41l-3.86,1a3.22,3.22,0,0,0,1.15,1.72Zm.29.43a16.82,16.82,0,0,0-4.37-7.63L32.7,11.3A12.8,12.8,0,0,1,36,17.11ZM35.53,8.47A16.82,16.82,0,0,0,27.9,4.1L26.89,8A12.91,12.91,0,0,1,32.7,11.3ZM27.91,4.11a.79.79,0,0,1,.28.13L25.75,7.42A3.39,3.39,0,0,0,26.88,8Zm.28.13a.9.9,0,0,1,.2.23l-3.47,2a3.29,3.29,0,0,0,.83,1Zm.2.23a.71.71,0,0,1,.09.28l-4,.53a3.17,3.17,0,0,0,.4,1.19Zm.09.28a.65.65,0,0,1,0,.31L24.6,4a3.15,3.15,0,0,0-.08,1.26ZM25.25,14.5a5.54,5.54,0,0,1,4.25,4.25l3.86-1a9.5,9.5,0,0,0-7.08-7.08Zm4.25,4.25a3.25,3.25,0,0,0,1.15,1.73l2.43-3.18a.75.75,0,0,1,.28.42Zm1.15,1.73a3.22,3.22,0,0,0,2,.66v-4a.78.78,0,0,1,.47.16Zm2,.66a2.91,2.91,0,0,0,.83-.11l-1-3.86a.76.76,0,0,1,.21,0Zm.83-.11a3.13,3.13,0,0,0,1.13-.55L32.14,17.3a.75.75,0,0,1,.27-.13Zm1.13-.55a3.32,3.32,0,0,0,.84-.95l-3.47-2a.74.74,0,0,1,.2-.23Zm.84-.95a3.35,3.35,0,0,0,.4-1.19l-4-.52a1,1,0,0,1,.1-.29Zm.4-1.19a3.15,3.15,0,0,0-.08-1.26l-3.87,1a1,1,0,0,1,0-.3Zm-.08-1.26a12,12,0,0,0-8.82-8.81l-1,3.86a8,8,0,0,1,6,6ZM26.91,8.27a3.09,3.09,0,0,0-1.25-.08l.52,4a.61.61,0,0,1-.3,0Zm-1.25-.08a3.11,3.11,0,0,0-1.19.4l2,3.47a.75.75,0,0,1-.29.09Zm-1.19.4a3.25,3.25,0,0,0-1.5,2l3.86,1a.8.8,0,0,1-.36.47Zm-1.5,2A3.22,3.22,0,0,0,23.29,13l3.46-2a.76.76,0,0,1,.08.59ZM23.29,13a3.22,3.22,0,0,0,2,1.5l1-3.86a.74.74,0,0,1,.47.36ZM40,32.11a9.08,9.08,0,0,1-3,5.64l2.63,3A13,13,0,0,0,44,32.63Zm-3,5.64A9.12,9.12,0,0,1,31,40v4a13.12,13.12,0,0,0,8.63-3.24ZM31,40A27,27,0,0,1,4,13H0A31,31,0,0,0,31,44ZM4,13A9.07,9.07,0,0,1,6.25,7l-3-2.63A13,13,0,0,0,0,13ZM6.25,7a9.05,9.05,0,0,1,5.64-3l-.52-4A13,13,0,0,0,3.24,4.39Zm5.62-3a.82.82,0,0,1,.53.1l2-3.46a4.8,4.8,0,0,0-3-.61Zm.53.1a.89.89,0,0,1,.36.41L16.44,3a4.86,4.86,0,0,0-2-2.3Zm.37.44,4.31,9.61,3.65-1.63L16.42,2.92Zm4.3,9.6a.83.83,0,0,1,.07.41l4,.34a5,5,0,0,0-.39-2.36Zm.07.41A.84.84,0,0,1,17,15l3.35,2.19a4.89,4.89,0,0,0,.78-2.25ZM17,15l.05-.08,3.08,2.56.22-.3Zm.06-.08L12.76,20l3.06,2.57,4.3-5.11ZM12.5,20.4a2.3,2.3,0,0,0-.25,1.06h4a1.61,1.61,0,0,1-.17.71Zm-.25,1.06a2.29,2.29,0,0,0,.25,1.05l3.58-1.77a1.65,1.65,0,0,1,.17.72Zm.24,1.05a21.22,21.22,0,0,0,9.1,9l1.73-3.6a17.24,17.24,0,0,1-7.23-7.17Zm9.13,9a2.37,2.37,0,0,0,1.08.21l-.15-4a1.8,1.8,0,0,1,.73.15Zm1.08.21a2.27,2.27,0,0,0,1.05-.29L21.84,28a1.61,1.61,0,0,1,.71-.2Zm1.39-.52,5-4.29-2.59-3-5,4.28Zm5.06-4.3L29,27l-2.16-3.37-.35.26Zm-.09.07a.8.8,0,0,1,.4-.14l-.37-4a4.8,4.8,0,0,0-2.25.79Zm.4-.14a1,1,0,0,1,.41.06l1.58-3.67a4.8,4.8,0,0,0-2.36-.37Zm.38.05,9.64,4.32,1.64-3.65-9.64-4.32Zm9.65,4.33a.82.82,0,0,1,.4.36l3.48-2a4.84,4.84,0,0,0-2.26-2.05Zm.4.36a.81.81,0,0,1,.1.53l4,.49a4.86,4.86,0,0,0-.59-3Zm4.09.77Zm-2.43-.15a2.44,2.44,0,0,0-.34-1.44l-3.43,2.08a1.61,1.61,0,0,1-.22-1Zm-.34-1.44a2.43,2.43,0,0,0-1.12-1L38.52,33.5a1.64,1.64,0,0,1-.74-.64Zm-1.09-1-9.64-4.32-1.64,3.65,9.65,4.32Zm-9.74-4.36a2.46,2.46,0,0,0-1-.16l.25,4a1.77,1.77,0,0,1-.68-.11Zm-1-.16a2.57,2.57,0,0,0-1,.28l1.89,3.53a1.68,1.68,0,0,1-.66.19ZM28,25.83l-5,4.29,2.59,3,5-4.28Zm-5,4.28,0,0h0l2.26,3.3.27-.2Zm.05-.05a.85.85,0,0,1-.41.15l.29,4a4.75,4.75,0,0,0,2.34-.8Zm-.41.15a.82.82,0,0,1-.43-.09l-1.71,3.62a4.72,4.72,0,0,0,2.43.45Zm-.42-.08a19.58,19.58,0,0,1-8.36-8.3l-3.6,1.76A23.55,23.55,0,0,0,20.5,33.73Zm-8.36-8.29a.88.88,0,0,1-.08-.42l-4-.27a4.91,4.91,0,0,0,.47,2.42Zm-.08-.42a.91.91,0,0,1,.14-.42l-3.35-2.19a5,5,0,0,0-.78,2.34ZM14,21l-.09.12-3-2.64q-.13.16-.27.36Zm-.06.09L18.18,16l-3.06-2.57-4.3,5.11Zm4.58-5.57a2.31,2.31,0,0,0,.22-1h-4a1.56,1.56,0,0,1,.15-.67Zm.22-1a2.36,2.36,0,0,0-.22-1l-3.63,1.67a1.52,1.52,0,0,1-.15-.66Zm-.21-1L14.18,3.9,10.53,5.53l4.3,9.62ZM14.23,4a2.43,2.43,0,0,0-.86-1.14L11.05,6.15a1.53,1.53,0,0,1-.57-.75Zm-.86-1.14A2.44,2.44,0,0,0,12,2.45l-.08,4a1.59,1.59,0,0,1-.89-.3ZM12,2.45h-.05v4H12Zm-.31,0A10.65,10.65,0,0,0,5.07,6l3,2.63A6.62,6.62,0,0,1,12.2,6.43ZM5.07,6a10.59,10.59,0,0,0-2.62,7l4,0A6.56,6.56,0,0,1,8.08,8.64ZM2.45,13A28.56,28.56,0,0,0,31,41.55v-4A24.57,24.57,0,0,1,6.45,13ZM31,41.55a10.59,10.59,0,0,0,7-2.62l-2.63-3A6.68,6.68,0,0,1,31,37.55Zm7-2.62a10.59,10.59,0,0,0,3.54-6.6l-4-.53a6.62,6.62,0,0,1-2.21,4.12Z"/></g></g></g></svg>