<svg xmlns="http://www.w3.org/2000/svg" viewBox="0 0 662 662"><defs><style>.cls-1{fill:none;}.cls-2{fill:#555;stroke:#555;}</style></defs><title>whatsappRecurso 4</title><g id="Capa_2" data-name="Capa 2"><g id="Capa_1-2" data-name="Capa 1"><polygon class="cls-1" points="171.96 593.35 171.96 593.35 171.96 593.35 171.96 593.35"/><path class="cls-1" d="M411.75,372.36l-.26-.13-.24.16L356.5,408.8h0a12.78,12.78,0,0,1-12,1.18,173,173,0,0,1-92.42-92.41,12.82,12.82,0,0,1-.89-6.12,12.64,12.64,0,0,1,2.1-5.82h0l36.42-54.74.16-.24-.13-.26L244.08,159l-.16-.31-.33,0a93.18,93.18,0,0,0-85.14,92.85h0A252.33,252.33,0,0,0,410.53,503.62a93.18,93.18,0,0,0,92.89-85.09l0-.34-.31-.15Z"/><path class="cls-2" d="M167.92,594l4-.67A12.63,12.63,0,0,0,167.92,594Z"/><polygon class="cls-2" points="171.96 593.35 167.92 594.02 171.96 593.35 171.96 593.35"/><polygon class="cls-2" points="167.92 594.02 178.33 595.07 171.96 593.35 167.92 594.02"/><polygon class="cls-2" points="178.33 595.07 178.33 595.08 178.58 594.65 178.33 595.07"/><path class="cls-2" d="M654.73,264.45A330.5,330.5,0,1,0,42,491.29l.1.19-.07.21L2.62,609.83a39.22,39.22,0,0,0,49.62,49.61l118.14-39.39.21-.07.19.11a330.51,330.51,0,0,0,484-355.64Zm-29,145.39A305.09,305.09,0,0,1,178.33,595.07h0L167.92,594h0L44.18,635.27A13.74,13.74,0,0,1,26.8,617.89L68,494.16h0A12.69,12.69,0,0,0,67,483.74a305,305,0,1,1,558.72-73.9Z"/><polygon class="cls-2" points="348.41 383.62 348.18 383.77 403.49 346.87 348.41 383.62"/><path class="cls-2" d="M172,593.35l6.37,1.72a13,13,0,0,0-6.37-1.72Z"/><path class="cls-2" d="M522.16,399l-105.92-53a12.8,12.8,0,0,0-12.75.79l-55.32,36.9-.25-.12a148,148,0,0,1-69.45-69.45l-.13-.25.16-.24,36.74-55.08a12.74,12.74,0,0,0,.8-12.74L263.08,140h0a12.72,12.72,0,0,0-11.44-7.07h0A118.68,118.68,0,0,0,133,251.56,277.85,277.85,0,0,0,410.53,529.1,118.66,118.66,0,0,0,529.2,410.44a12.74,12.74,0,0,0-7-11.4Zm-18.74,19.49a93.18,93.18,0,0,1-92.89,85.09A252.33,252.33,0,0,1,158.45,251.56h0a93.18,93.18,0,0,1,85.14-92.85l.33,0,.16.31,45.68,91.39.13.26-.16.24-36.42,54.74h0a12.64,12.64,0,0,0-2.1,5.82,12.82,12.82,0,0,0,.89,6.12A173,173,0,0,0,344.52,410a12.78,12.78,0,0,0,12-1.18h0l54.75-36.41.24-.16.26.13L503.14,418l.31.15Z"/></g></g></svg>